<svg width="119" height="45" viewBox="0 0 119 45" fill="none" xmlns="http://www.w3.org/2000/svg">
<path d="M11.34 41.272H5.576L4.168 44H0.23L8.546 28.556H12.902L15.762 44H11.78L11.34 41.272ZM10.9 38.412L9.998 32.692L7.05 38.412H10.9ZM25.5587 37.884L29.6287 44H24.9647L22.1267 38.874L21.2247 44H17.4627L20.3447 27.72H24.1067L22.5227 36.696L27.0987 31.724H31.7407L25.5587 37.884ZM31.4143 37.84C31.6343 36.5787 32.067 35.4713 32.7123 34.518C33.3576 33.5647 34.135 32.8313 35.0443 32.318C35.9536 31.8047 36.9143 31.548 37.9263 31.548C38.7916 31.548 39.5176 31.724 40.1043 32.076C40.691 32.428 41.1163 32.89 41.3803 33.462L41.6883 31.724H45.4503L43.2723 44H39.5103L39.8403 42.262C39.371 42.834 38.777 43.296 38.0583 43.648C37.3396 44 36.5476 44.176 35.6823 44.176C34.817 44.176 34.047 43.978 33.3723 43.582C32.7123 43.186 32.199 42.6287 31.8323 41.91C31.4656 41.1767 31.2823 40.3187 31.2823 39.336C31.2823 38.8667 31.3263 38.368 31.4143 37.84ZM40.6103 37.862C40.6543 37.598 40.6763 37.356 40.6763 37.136C40.6763 36.4173 40.4636 35.8527 40.0383 35.442C39.6276 35.0313 39.0996 34.826 38.4543 34.826C37.7063 34.826 37.0243 35.0973 36.4083 35.64C35.7923 36.168 35.4036 36.9013 35.2423 37.84C35.1983 38.104 35.1763 38.346 35.1763 38.566C35.1763 39.2847 35.3816 39.8567 35.7923 40.282C36.2176 40.6927 36.7456 40.898 37.3763 40.898C38.1243 40.898 38.8063 40.6267 39.4223 40.084C40.0383 39.5413 40.4343 38.8007 40.6103 37.862ZM60.272 31.724L58.116 44H54.354L54.64 42.328C54.156 42.8707 53.562 43.3107 52.858 43.648C52.1686 43.9707 51.428 44.132 50.636 44.132C49.404 44.132 48.436 43.7873 47.732 43.098C47.028 42.394 46.676 41.4187 46.676 40.172C46.676 39.7027 46.7126 39.2773 46.786 38.896L48.062 31.724H51.802L50.636 38.39C50.592 38.6247 50.57 38.852 50.57 39.072C50.57 39.688 50.7386 40.1647 51.076 40.502C51.428 40.8247 51.912 40.986 52.528 40.986C53.232 40.986 53.826 40.7807 54.31 40.37C54.8086 39.9447 55.1386 39.3433 55.3 38.566L56.51 31.724H60.272ZM70.4762 31.592C71.7082 31.592 72.6762 31.9367 73.3802 32.626C74.0842 33.3153 74.4362 34.276 74.4362 35.508C74.4362 35.9187 74.3922 36.3587 74.3042 36.828L73.0282 44H69.2882L70.4762 37.334C70.5202 37.0847 70.5422 36.8647 70.5422 36.674C70.5422 36.058 70.3662 35.5813 70.0142 35.244C69.6768 34.9067 69.2002 34.738 68.5842 34.738C67.8508 34.738 67.2348 34.9653 66.7362 35.42C66.2375 35.8747 65.9148 36.5127 65.7682 37.334V37.224L64.5802 44H60.8182L62.9742 31.724H66.7362L66.4502 33.374C66.9342 32.8313 67.5208 32.3987 68.2102 32.076C68.9142 31.7533 69.6695 31.592 70.4762 31.592ZM80.7464 39.776C80.7317 39.8493 80.7244 39.9447 80.7244 40.062C80.7244 40.326 80.7977 40.5167 80.9444 40.634C81.1057 40.7513 81.3624 40.81 81.7144 40.81H83.0564L82.4844 44H80.5704C78.1064 44 76.8744 42.966 76.8744 40.898C76.8744 40.59 76.9111 40.2013 76.9844 39.732L77.8644 34.848H76.3684L76.9184 31.724H78.4144L78.9424 28.732H82.7044L82.1764 31.724H84.6404L84.0904 34.848H81.6264L80.7464 39.776ZM104.798 28.556L102.07 44H98.3079L99.9579 34.738L94.8539 44H91.8179L89.9699 34.694L88.3419 44H84.5799L87.3079 28.556H91.7519L94.2159 39.248L100.376 28.556H104.798ZM112.431 31.548C114.015 31.548 115.269 31.9807 116.193 32.846C117.132 33.6967 117.601 34.8627 117.601 36.344C117.601 36.828 117.565 37.2607 117.491 37.642C117.433 37.9793 117.345 38.3387 117.227 38.72H108.713C108.699 38.808 108.691 38.9473 108.691 39.138C108.691 39.7833 108.867 40.2747 109.219 40.612C109.571 40.9493 110.041 41.118 110.627 41.118C111.566 41.118 112.285 40.722 112.783 39.93H116.787C116.259 41.1767 115.401 42.196 114.213 42.988C113.025 43.78 111.691 44.176 110.209 44.176C108.625 44.176 107.357 43.736 106.403 42.856C105.465 41.976 104.995 40.7807 104.995 39.27C104.995 38.8153 105.039 38.346 105.127 37.862C105.347 36.586 105.802 35.4713 106.491 34.518C107.181 33.5647 108.039 32.8313 109.065 32.318C110.092 31.8047 111.214 31.548 112.431 31.548ZM113.795 36.806C113.825 36.6007 113.839 36.4613 113.839 36.388C113.839 35.8013 113.656 35.354 113.289 35.046C112.923 34.7233 112.439 34.562 111.837 34.562C111.192 34.562 110.62 34.76 110.121 35.156C109.637 35.5373 109.285 36.0873 109.065 36.806H113.795Z" fill="url(#paint0_linear_1765_600)"/>
<path d="M74.2019 24.1087H64.5895C62.9044 23.5085 61.6971 21.8979 61.6971 20.0051C61.6971 19.8101 61.7125 19.6152 61.7382 19.4254L63.449 16.5119L66.0691 12.0543L74.2019 24.1087Z" fill="url(#paint1_linear_1765_600)"/>
<path d="M64.5227 8.72017L57.5768 21.031L56.801 22.4108C56.801 22.4108 56.7907 22.4211 56.7856 22.4262C55.9379 23.4521 54.6586 24.1087 53.2201 24.1087H45L54.7768 7.11976L55.5526 5.76557C55.5526 5.76557 55.5543 5.76386 55.5577 5.76044L58.8714 0L62.4163 5.46806L63.4233 7.02743L64.5227 8.72017Z" fill="url(#paint2_linear_1765_600)"/>
<defs>
<linearGradient id="paint0_linear_1765_600" x1="60" y1="20" x2="140.052" y2="86.5809" gradientUnits="userSpaceOnUse">
<stop stop-color="#635BFF"/>
<stop offset="1" stop-color="#13F287"/>
</linearGradient>
<linearGradient id="paint1_linear_1765_600" x1="67.9495" y1="12.0543" x2="81.9393" y2="14.3047" gradientUnits="userSpaceOnUse">
<stop stop-color="#635BFF"/>
<stop offset="1" stop-color="#13F287"/>
</linearGradient>
<linearGradient id="paint2_linear_1765_600" x1="54.7614" y1="7.95619e-06" x2="76.8198" y2="2.76987" gradientUnits="userSpaceOnUse">
<stop stop-color="#635BFF"/>
<stop offset="1" stop-color="#13F287"/>
</linearGradient>
</defs>
</svg>
